C:\Users\r0593348\3dpredictsim\Results\batch_windlass\Pog_s1_tmt_bCst_d05_k500_WL40_ig24_act_TTC_GRF.mot
nRows=22
nColumns=19

name C:\Users\r0593348\3dpredictsim\Results\batch_windlass\Pog_s1_tmt_bCst_d05_k500_WL40_ig24_act_TTC_GRF.mot
datacolumns 19
datarows 22
range 0.5670094493 0.8051534179
endheader
time 	ground_force_vx	ground_force_vy	ground_force_vz	ground_force_px	ground_force_py	ground_force_pz	1_ground_force_vx	1_ground_force_vy	1_ground_force_vz	1_ground_force_px	1_ground_force_py	1_ground_force_pz	ground_torque_x	ground_torque_y	ground_torque_z	1_ground_torque_x	1_ground_torque_y	1_ground_torque_z
        0.5670094493	       56.5262147052	      306.4913253720	        4.3122009865	        0.3717042581	        0.0000000000	        0.0305880765	      -48.9346038864	       32.0726871542	       -8.2955036989	        0.8389448277	        0.0000000000	       -0.0583475624	        0.0000000000	        0.0000000000	        0.0000000000	        0.0000000000	        0.0000000000	        0.0000000000	
        0.5783496382	       33.9558049811	      221.7995966872	        9.6939579456	        0.3816538213	        0.0000000000	        0.0252971805	      -96.8411943408	       74.5731427681	      -20.7712279150	        0.8533773532	        0.0000000000	       -0.0562709168	        0.0000000000	        0.0000000000	        0.0000000000	        0.0000000000	        0.0000000000	        0.0000000000	
        0.5896898272	       18.1208695134	      178.8415131690	       18.7965971838	        0.3844247003	        0.0000000000	        0.0238994451	     -167.0469018531	      172.2724982652	      -53.5641259273	        0.8644340607	        0.0000000000	       -0.0554188469	        0.0000000000	        0.0000000000	        0.0000000000	        0.0000000000	        0.0000000000	        0.0000000000	
        0.6010300162	       10.1591918642	      136.1330965263	       17.3398935393	        0.3843573458	        0.0000000000	        0.0238809309	      -87.1982989704	      424.7089260376	      -10.4654033540	        0.8801816723	        0.0000000000	       -0.0562066038	        0.0000000000	        0.0000000000	        0.0000000000	        0.0000000000	        0.0000000000	        0.0000000000	
        0.6123702052	       -6.5917490688	       83.0745670959	       10.6465439429	        0.3833694514	        0.0000000000	        0.0235517506	      -88.7207382851	      737.8231917426	       18.1153416743	        0.8896354276	        0.0000000000	       -0.0578477540	        0.0000000000	        0.0000000000	        0.0000000000	        0.0000000000	        0.0000000000	        0.0000000000	
        0.6237103942	      -11.3122992662	       17.0437311349	        1.3941060508	        0.3800394511	        0.0000000000	        0.0227971427	     -107.5706230523	      920.4291243688	       26.5549734709	        0.8954407011	        0.0000000000	       -0.0586985839	        0.0000000000	        0.0000000000	        0.0000000000	        0.0000000000	        0.0000000000	        0.0000000000	
        0.6350505832	        0.0044537796	       -0.0038510142	        0.0003834110	        0.0000000000	        0.0000000000	        0.0000000000	     -124.1027192992	      970.5313123986	       28.6655520353	        0.9019826343	        0.0000000000	       -0.0589397892	        0.0000000000	        0.0000000000	        0.0000000000	        0.0000000000	        0.0000000000	        0.0000000000	
        0.6463907722	        0.0014585839	       -0.0011439590	        0.0001131067	        0.0000000000	        0.0000000000	        0.0000000000	     -127.7433135958	      955.4012515788	       25.3433751767	        0.9095220195	        0.0000000000	       -0.0585713156	        0.0000000000	        0.0000000000	        0.0000000000	        0.0000000000	        0.0000000000	        0.0000000000	
        0.6577309611	        0.0018417382	       -0.0013818321	        0.0000913420	        0.0000000000	        0.0000000000	        0.0000000000	     -116.7250573062	      899.3456162142	       24.5092465437	        0.9163955614	        0.0000000000	       -0.0580722718	        0.0000000000	        0.0000000000	        0.0000000000	        0.0000000000	        0.0000000000	        0.0000000000	
        0.6690711501	        0.0015982142	       -0.0010845059	        0.0000852190	        0.0000000000	        0.0000000000	        0.0000000000	     -100.1027664880	      832.3069176415	       23.8195218655	        0.9210358037	        0.0000000000	       -0.0576100933	        0.0000000000	        0.0000000000	        0.0000000000	        0.0000000000	        0.0000000000	        0.0000000000	
        0.6804113391	        0.0085566734	       -0.0053429477	        0.0004957507	        0.0000000000	        0.0000000000	        0.0000000000	      -86.4804693934	      775.6087331034	       23.4214670637	        0.9251224241	        0.0000000000	       -0.0572809373	        0.0000000000	        0.0000000000	        0.0000000000	        0.0000000000	        0.0000000000	        0.0000000000	
        0.6917515281	       -0.0310944654	        0.0181345428	       -0.0018233328	        0.0000000000	        0.0000000000	        0.0000000000	      -74.9392564137	      731.9750837606	       23.3429273993	        0.9287372573	        0.0000000000	       -0.0570516525	        0.0000000000	        0.0000000000	        0.0000000000	        0.0000000000	        0.0000000000	        0.0000000000	
        0.7030917171	       -0.0226998947	        0.0124997287	       -0.0013791640	        0.0000000000	        0.0000000000	        0.0000000000	      -64.1423402119	      698.0846748777	       23.6582519731	        0.9321248225	        0.0000000000	       -0.0568937609	        0.0000000000	        0.0000000000	        0.0000000000	        0.0000000000	        0.0000000000	        0.0000000000	
        0.7144319061	       -0.0126970053	        0.0066515719	       -0.0008020501	        0.0000000000	        0.0000000000	        0.0000000000	      -53.9571758742	      670.3673903874	       24.0042418193	        0.9354977077	        0.0000000000	       -0.0567827374	        0.0000000000	        0.0000000000	        0.0000000000	        0.0000000000	        0.0000000000	        0.0000000000	
        0.7257720950	       -0.0082767516	        0.0041525746	       -0.0005402262	        0.0000000000	        0.0000000000	        0.0000000000	      -44.5435572781	      647.0954214578	       23.9336118861	        0.9390517731	        0.0000000000	       -0.0566943493	        0.0000000000	        0.0000000000	        0.0000000000	        0.0000000000	        0.0000000000	        0.0000000000	
        0.7371122840	       -0.0068210795	        0.0032968355	       -0.0004527151	        0.0000000000	        0.0000000000	        0.0000000000	      -36.0210693733	      628.2704866480	       23.9896514208	        0.9431832774	        0.0000000000	       -0.0565732619	        0.0000000000	        0.0000000000	        0.0000000000	        0.0000000000	        0.0000000000	        0.0000000000	
        0.7484524730	       -0.0071782370	        0.0033589308	       -0.0004798719	        0.0000000000	        0.0000000000	        0.0000000000	      -29.0422446745	      613.5468598837	       24.0238234980	        0.9479976709	        0.0000000000	       -0.0563729380	        0.0000000000	        0.0000000000	        0.0000000000	        0.0000000000	        0.0000000000	        0.0000000000	
        0.7597926620	       -0.0094830701	        0.0043109248	       -0.0006330494	        0.0000000000	        0.0000000000	        0.0000000000	      -23.2298757258	      602.0495187545	       23.9808657583	        0.9532522230	        0.0000000000	       -0.0560827863	        0.0000000000	        0.0000000000	        0.0000000000	        0.0000000000	        0.0000000000	        0.0000000000	
        0.7711328510	       -0.0151927036	        0.0067252651	       -0.0010019021	        0.0000000000	        0.0000000000	        0.0000000000	      -18.5424593637	      593.0169194806	       23.7626421172	        0.9587141922	        0.0000000000	       -0.0557127910	        0.0000000000	        0.0000000000	        0.0000000000	        0.0000000000	        0.0000000000	        0.0000000000	
        0.7824730400	       -0.0279646562	        0.0120810651	       -0.0018026798	        0.0000000000	        0.0000000000	        0.0000000000	      -15.2066148214	      586.8020605122	       23.5170379727	        0.9642721551	        0.0000000000	       -0.0552706048	        0.0000000000	        0.0000000000	        0.0000000000	        0.0000000000	        0.0000000000	        0.0000000000	
        0.7938132290	       -0.0554910495	        0.0234569754	       -0.0034745924	        0.0000000000	        0.0000000000	        0.0000000000	      -12.4451452174	      582.6785277589	       23.2358708239	        0.9697996730	        0.0000000000	       -0.0547749599	        0.0000000000	        0.0000000000	        0.0000000000	        0.0000000000	        0.0000000000	        0.0000000000	
        0.8051534179	       -0.1115117059	        0.0462583856	       -0.0067452995	        0.0000000000	        0.0000000000	        0.0000000000	       -9.8864085149	      579.3237896230	       22.9834111209	        0.9752144192	        0.0000000000	       -0.0542437257	        0.0000000000	        0.0000000000	        0.0000000000	        0.0000000000	        0.0000000000	        0.0000000000	
